<?xml version="1.0" encoding="UTF-8"?>
<svg version="1.1" xmlns="http://www.w3.org/2000/svg" width="1024" height="1024">
<path d="M0 0 C0 0.33 0 0.66 0 1 C1.13707397 1.18006592 1.13707397 1.18006592 2.29711914 1.36376953 C43.92226762 8.03609598 83.75535255 20.03363973 119 44 C119.88816406 44.58910156 120.77632812 45.17820312 121.69140625 45.78515625 C132.90290972 53.39746118 143.25842853 62.00393758 153.10546875 71.29296875 C155.41930616 73.45692196 157.76286663 75.52658541 160.1875 77.5625 C169.12282388 85.33884881 176.45269676 94.78925328 183.60888672 104.17626953 C184.52795829 105.38115978 185.4513927 106.58273599 186.37939453 107.78076172 C216.17647408 146.32114063 239.35703714 200.48370212 236 250 C233.55501566 268.64300558 226.57517669 284.71930551 212 297 C195.82907562 308.97198266 177.56610209 313.23982014 157.73681641 310.71142578 C138.48266251 307.55257428 123.960715 297.22980413 112 282 C104.84300838 271.76815272 95 254.80137403 95 242 C94.34 241.67 93.68 241.34 93 241 C92.31103516 238.86083984 92.31103516 238.86083984 91.6640625 236.0859375 C90.15927261 230.25322874 88.00166166 225.03316131 85.375 219.625 C84.93623535 218.71451904 84.4974707 217.80403809 84.04541016 216.8659668 C80.34232259 209.35925836 76.11672346 202.64145093 71 196 C70.05060547 194.71996094 70.05060547 194.71996094 69.08203125 193.4140625 C51.97333424 171.04929157 28.23702682 155.35134172 1.375 147.25 C0.71902832 147.05116211 0.06305664 146.85232422 -0.61279297 146.64746094 C-11.65210142 143.48717769 -22.54782805 142.60867221 -34 142.625 C-34.67808716 142.62587616 -35.35617432 142.62675232 -36.05480957 142.62765503 C-66.09660762 142.75510027 -95.47966113 152.68116861 -118 173 C-118.825 173.69480469 -119.65 174.38960937 -120.5 175.10546875 C-148.35479159 198.99965716 -161.84544992 232.11489575 -165.28515625 267.97265625 C-166.25125978 294.47749664 -156.7843447 323.58400826 -139.125 343.4375 C-138.52945313 344.07558594 -137.93390625 344.71367188 -137.3203125 345.37109375 C-136 347 -136 347 -136 349 C-135.34 349 -134.68 349 -134 349 C-134 349.66 -134 350.32 -134 351 C-133.44828125 351.24363281 -132.8965625 351.48726562 -132.328125 351.73828125 C-129.51284345 353.26401269 -127.23685178 355.16953787 -124.75 357.1875 C-108.30603506 369.908109 -85.33171972 375.95220725 -64.74609375 373.58984375 C-44.73962973 370.77086606 -26.09528414 361.80132072 -13 346 C0.82618967 327.29949262 9.03951234 305.31980217 5.69091797 281.83203125 C2.92628995 266.55066461 -3.64267012 252.79887531 -16.29296875 243.2734375 C-25.11803402 237.93153958 -34.98143188 236.95134821 -45 239 C-54.92559271 242.62074438 -61.98305017 248.73566196 -67 258 C-70.59306168 266.2088675 -71.68652775 275.76933976 -68.8125 284.375 C-66.06040454 290.56078465 -62.30938975 294.35835239 -56 297 C-53.06203505 297.62943854 -50.10396062 297.99474662 -47.125 298.375 C-37.99027535 299.75309928 -32.28955207 301.61817944 -26.5625 309.1875 C-23.26301163 314.61452733 -22.17080752 319.94056205 -23.44921875 326.19921875 C-25.53733822 332.5359975 -29.13770793 337.24744589 -35.125 340.3125 C-46.47100232 345.54402247 -59.75519562 343.81632845 -71.203125 339.6171875 C-84.05581114 334.40681575 -95.40435155 325.65457309 -103 314 C-103 313.34 -103 312.68 -103 312 C-103.99 311.67 -104.98 311.34 -106 311 C-107.37334617 308.71108972 -108.15250816 306.54247553 -109 304 C-109.3815625 302.87851562 -109.763125 301.75703125 -110.15625 300.6015625 C-110.60426483 299.27607484 -111.05217809 297.95055285 -111.5 296.625 C-111.72558594 295.965 -111.95117188 295.305 -112.18359375 294.625 C-118.36910071 276.25148228 -115.92450559 256.21093285 -107.875 238.875 C-96.9063062 218.13291877 -79.41713015 202.52273359 -57.25 194.671875 C-36.35049256 188.33820748 -15.2238727 191.93840244 3.80859375 202.0390625 C8.97078851 205.21093737 13.47199419 208.99554486 18 213 C18.97195313 213.76441406 19.94390625 214.52882813 20.9453125 215.31640625 C40.86230899 231.89905572 49.53343401 260.33900378 51.8515625 285.0390625 C53.52451352 318.41003277 42.04667103 350.96704602 19.78686523 375.83569336 C17.562311 378.26104602 15.28349802 380.63000585 13 383 C12.00226563 384.09248047 12.00226563 384.09248047 10.984375 385.20703125 C5.39966489 391.15545147 -1.15829304 395.6310593 -8 400 C-9.0828125 400.69351562 -10.165625 401.38703125 -11.28125 402.1015625 C-39.22149108 419.00932521 -73.32570202 423.05775649 -105 416 C-126.04442326 410.65985308 -144.55604574 400.00874271 -161 386 C-161.71027344 385.42507813 -162.42054688 384.85015625 -163.15234375 384.2578125 C-172.13509815 376.82258212 -178.68374395 367.24686304 -185.15234375 357.65234375 C-186.88850429 354.99414422 -186.88850429 354.99414422 -189 353 C-199.17069533 334.97528236 -205.7754895 315.37377282 -209 295 C-209.19207031 293.79730469 -209.38414062 292.59460938 -209.58203125 291.35546875 C-214.49909038 249.28440244 -203.66961502 204.85692188 -178 171 C-177.40574219 170.20722656 -176.81148437 169.41445313 -176.19921875 168.59765625 C-174.49741143 166.37161403 -172.75547039 164.18391132 -171 162 C-169.93458984 160.63875 -169.93458984 160.63875 -168.84765625 159.25 C-164.92204074 154.31110596 -161.03012188 149.80214303 -156.1171875 145.828125 C-154.22687212 144.19589696 -152.54050449 142.50256219 -150.80859375 140.70703125 C-146.92667752 136.79312687 -142.67830817 133.6167314 -138.1875 130.4375 C-137.44435547 129.89931641 -136.70121094 129.36113281 -135.93554688 128.80664062 C-118.47352909 116.30798707 -98.75258655 107.43915079 -78 102 C-76.87803223 101.70270996 -76.87803223 101.70270996 -75.73339844 101.39941406 C-31.87195506 90.22200284 14.78401441 97.77912288 54 120 C67.55107126 128.25412133 79.46133188 138.1539668 91 149 C91.74894531 149.67160156 92.49789063 150.34320313 93.26953125 151.03515625 C104.98641079 161.96946128 115.00341627 176.59399065 122 191 C122 191.66 122 192.32 122 193 C122.66 193.33 123.32 193.66 124 194 C124.97045898 195.90063477 124.97045898 195.90063477 125.99609375 198.44140625 C126.38450439 199.40248291 126.77291504 200.36355957 127.1730957 201.35375977 C127.59034912 202.41264404 128.00760254 203.47152832 128.4375 204.5625 C128.87344482 205.65554443 129.30938965 206.74858887 129.75854492 207.87475586 C132.3078204 214.36773198 134.6911048 220.89465873 136.9296875 227.5 C137.17133133 228.21236313 137.41297516 228.92472626 137.66194153 229.65867615 C138.8453385 233.16117648 140.01136383 236.66848603 141.15600586 240.18383789 C144.29444123 249.69886042 147.33637186 258.27873614 156 264 C163.60043319 267.38528827 170.57515899 267.8572306 178.453125 265.16015625 C184.17246737 262.49933637 186.67190952 259.1568139 189.13671875 253.4140625 C197.6433878 229.62618253 182.33792188 195.02556335 172.37915039 173.703125 C166.42688854 160.93013267 166.42688854 160.93013267 159 149 C158.34 149 157.68 149 157 149 C156.94714844 148.33226562 156.89429688 147.66453125 156.83984375 146.9765625 C155.64480141 142.74111012 153.23211843 139.8248296 150.5625 136.375 C150.02915039 135.67294434 149.49580078 134.97088867 148.94628906 134.24755859 C144.82992397 128.89872692 140.43941784 123.90392235 135.765625 119.0390625 C134 117 134 117 134 115 C133.34 115 132.68 115 132 115 C130.5625 113.50390625 130.5625 113.50390625 129 111.5625 C126.85474956 108.84811762 126.85474956 108.84811762 124 107 C124 106.34 124 105.68 124 105 C123.14921875 104.63648438 123.14921875 104.63648438 122.28125 104.265625 C119.56262474 102.7573466 117.72166923 100.92838996 115.5 98.75 C75.27230109 61.1599542 16.14849703 43.02464722 -38.05371094 44.0234375 C-98.80710864 46.11768787 -156.86953753 70.98104518 -198.9921875 115.0859375 C-200.70269077 117.02559911 -202.3508055 119.00797513 -204 121 C-205.20849609 122.37671875 -205.20849609 122.37671875 -206.44140625 123.78125 C-211.78250789 129.88895681 -216.7354643 136.19860774 -221.4375 142.8125 C-221.93338623 143.50529053 -222.42927246 144.19808105 -222.94018555 144.91186523 C-225.7045333 148.86288744 -228.05021536 152.82987674 -230.10083008 157.19604492 C-231.03147091 159.06313835 -232.09612309 160.76351322 -233.25 162.5 C-262.23272302 208.32283732 -268.8773377 268.82142215 -257.22412109 321.10791016 C-248.55559173 357.71984179 -231.12330676 393.43549353 -204 420 C-203.27941406 420.75539063 -202.55882812 421.51078125 -201.81640625 422.2890625 C-188.22494908 436.37518275 -171.98301386 447.46725725 -154.75 456.625 C-153.51600464 457.28254272 -153.51600464 457.28254272 -152.25708008 457.95336914 C-151.10115356 458.55266235 -151.10115356 458.55266235 -149.921875 459.1640625 C-148.89465332 459.69700928 -148.89465332 459.69700928 -147.84667969 460.24072266 C-145.87034213 461.19013503 -145.87034213 461.19013503 -143 461 C-143 461.66 -143 462.32 -143 463 C-142.08577271 463.27263672 -142.08577271 463.27263672 -141.15307617 463.55078125 C-136.82053722 464.84618341 -132.4925351 466.15285205 -128.17578125 467.5 C-79.45251069 482.61060073 -30.94732571 479.18951824 14.47265625 455.46875 C23.82743449 450.44449398 32.15407544 444.27421228 40.37060547 437.59204102 C42.91024552 435.54124329 44.87426605 434.04191132 48 433 C48 432.34 48 431.68 48 431 C49.50390625 429.51953125 49.50390625 429.51953125 51.5625 427.8125 C58.37248708 421.98047954 64.02913285 415.9046634 69.36083984 408.70654297 C73.83165463 402.71597604 77.72671257 398.26545018 85 396 C90.88805204 395.21107799 95.97482841 395.62373773 101.1796875 398.60546875 C106.57622249 402.7397241 109.92302336 408.29881204 111 415 C110.40401275 433.77359841 91.18543381 451.32483118 78.4765625 463.7109375 C74.15632538 467.70409042 69.65078112 471.39939526 65 475 C64.44715332 475.42925781 63.89430664 475.85851562 63.32470703 476.30078125 C53.68384489 483.73289269 43.6123812 490.0553471 33 496 C32.37657715 496.35690918 31.7531543 496.71381836 31.11083984 497.08154297 C-18.27293234 525.32168559 -76.7066222 529.59614897 -131.03417969 514.85009766 C-141.9942123 511.70860658 -152.78501154 507.93257826 -163.00390625 502.84765625 C-165.09878556 501.80456319 -165.09878556 501.80456319 -168 502 C-168 501.34 -168 500.68 -168 500 C-169.29164063 499.60941406 -169.29164063 499.60941406 -170.609375 499.2109375 C-193.84458271 490.91264903 -215.43199172 471.87453427 -233 455 C-233.8971875 454.1440625 -234.794375 453.288125 -235.71875 452.40625 C-241.63763297 446.63351229 -246.89806984 440.49971924 -252 434 C-252.8146875 432.9790625 -253.629375 431.958125 -254.46875 430.90625 C-262.50435297 420.74211337 -269.43996616 409.98102862 -275.80859375 398.6953125 C-276.20175781 398.13585937 -276.59492188 397.57640625 -277 397 C-277.66 397 -278.32 397 -279 397 C-279.0825 396.17886719 -279.165 395.35773438 -279.25 394.51171875 C-280.17736818 390.16951045 -281.98313159 386.73955321 -284 382.8125 C-288.05423273 374.61555751 -291.18230364 366.2372943 -294.0625 357.5625 C-294.65321289 355.79386597 -294.65321289 355.79386597 -295.25585938 353.98950195 C-298 345.5429242 -298 345.5429242 -298 341 C-298.99 341 -299.98 341 -301 341 C-300.82041748 340.42217773 -300.64083496 339.84435547 -300.45581055 339.24902344 C-299.96260838 336.8155053 -300.13701334 335.41274107 -300.70703125 333.015625 C-300.88065186 332.25338623 -301.05427246 331.49114746 -301.2331543 330.70581055 C-301.42433838 329.89539307 -301.61552246 329.08497559 -301.8125 328.25 C-316.63630309 261.74303604 -303.89212258 188.24915514 -267.9375 130.5 C-266.32477992 127.97702137 -264.67515052 125.48190301 -263 123 C-262.60490234 122.41347656 -262.20980469 121.82695312 -261.80273438 121.22265625 C-251.78069537 106.49304737 -240.33553356 92.83714794 -228 80 C-227.53352051 79.51160645 -227.06704102 79.02321289 -226.58642578 78.52001953 C-220.12577819 71.78801117 -213.35174257 65.73637841 -206 60 C-205.06776611 59.26112549 -205.06776611 59.26112549 -204.11669922 58.50732422 C-163.06470566 26 -163.06470566 26 -151 26 C-150.67 25.34 -150.34 24.68 -150 24 C-148.21923828 23.26269531 -148.21923828 23.26269531 -145.9453125 22.578125 C-142.91006264 21.6226499 -139.93953133 20.62204403 -136.9921875 19.421875 C-115.70735554 10.7581218 -90.29268419 0.90815543 -67 2 C-66.67 1.34 -66.34 0.68 -66 0 C-43.93692658 -1.03718318 -22.06660283 -0.87316033 0 0 Z " fill="#FE7125" transform="translate(543,224)"/>
<path d="M0 0 C0.33 0 0.66 0 1 0 C1.48181362 2.97875968 1.96050857 5.95796749 2.4375 8.9375 C2.57220703 9.76830078 2.70691406 10.59910156 2.84570312 11.45507812 C4.13385938 19.52961855 5.14224823 27.4320915 5.125 35.625 C5.12757813 36.85476563 5.13015625 38.08453125 5.1328125 39.3515625 C4.77636002 49.14352179 4.77636002 49.14352179 2.45751953 51.70166016 C1.97653809 52.1301123 1.49555664 52.55856445 1 53 C1.00523682 51.77893555 1.01047363 50.55787109 1.01586914 49.29980469 C1.03397584 44.76742283 1.04545279 40.23504416 1.05493164 35.70263672 C1.05995887 33.74136823 1.06678157 31.78010348 1.07543945 29.81884766 C1.08757545 26.99901403 1.09324444 24.17922998 1.09765625 21.359375 C1.10281754 20.48319519 1.10797882 19.60701538 1.11329651 18.70428467 C1.11337204 17.88373596 1.11344757 17.06318726 1.11352539 16.21777344 C1.115746 15.49829529 1.11796661 14.77881714 1.12025452 14.03753662 C0.99487118 11.91309966 0.54739975 10.05153971 0 8 C-0.12205329 5.32459184 -0.04467313 2.68038762 0 0 Z " fill="#FD7428" transform="translate(774,431)"/>
<path d="M0 0 C0.33 0 0.66 0 1 0 C1.10849626 10.06604235 0.9767249 19.97112823 0 30 C-0.33 30 -0.66 30 -1 30 C-1.33 37.26 -1.66 44.52 -2 52 C-2.33 52 -2.66 52 -3 52 C-3.31968254 34.40598472 -3.50059124 17.33626136 0 0 Z " fill="#FD843F" transform="translate(336,459)"/>
<path d="M0 0 C0 0.33 0 0.66 0 1 C-0.64324219 1.02505615 -1.28648437 1.0501123 -1.94921875 1.07592773 C-4.96622409 1.19455286 -7.98311464 1.31586228 -11 1.4375 C-12.08748535 1.48044189 -13.1749707 1.52338379 -14.29541016 1.56762695 C-19.23133009 1.76991875 -24.15952316 1.9882478 -29.0859375 2.359375 C-29.82070313 2.41424072 -30.55546875 2.46910645 -31.3125 2.52563477 C-33.25856478 2.67836215 -35.20355471 2.84461184 -37.1484375 3.01171875 C-40 3 -40 3 -42 1 C-27.88898499 -1.70622206 -14.25126892 -1.36656003 0 0 Z " fill="#FD7B34" transform="translate(514,267)"/>
<path d="M0 0 C2.53541298 0.09086451 5.03554784 0.2370945 7.5625 0.4375 C8.62887695 0.51581055 8.62887695 0.51581055 9.71679688 0.59570312 C11.47821999 0.72574107 13.23916173 0.86226897 15 1 C15 1.33 15 1.66 15 2 C-1.12376267 4.26582361 -15.8251313 3.78743589 -32 2 C-32 1.67 -32 1.34 -32 1 C-30.59923218 1.00785522 -30.59923218 1.00785522 -29.17016602 1.01586914 C-25.71687204 1.0328762 -22.26362233 1.04543302 -18.81030273 1.05493164 C-17.31355082 1.05997121 -15.81680384 1.06680287 -14.32006836 1.07543945 C-12.17300193 1.08752159 -10.02600038 1.09323191 -7.87890625 1.09765625 C-6.5854126 1.10289307 -5.29191895 1.10812988 -3.95922852 1.11352539 C-1.11347596 1.33996932 -1.11347596 1.33996932 0 0 Z " fill="#FE6514" transform="translate(481,701)"/>
<path d="M0 0 C0.33 0 0.66 0 1 0 C2.85858987 15.23379911 3.11255417 28.7971548 1 44 C0.67 44 0.34 44 0 44 C-0.33 40.04 -0.66 36.08 -1 32 C-0.67 32 -0.34 32 0 32 C0.33 24.41 0.66 16.82 1 9 C0.34 9 -0.32 9 -1 9 C-0.67 6.03 -0.34 3.06 0 0 Z " fill="#FE833C" transform="translate(592,494)"/>
<path d="M0 0 C-2.4547731 2.92418113 -2.4547731 2.92418113 -4.91015625 3.265625 C-5.62042969 3.26046875 -6.33070313 3.2553125 -7.0625 3.25 C-14.89754218 3.85171076 -20.7544287 9.56237117 -26 15 C-24.59799333 10.5390697 -22.40216594 8.15322697 -19 5 C-18.2884375 4.1646875 -18.2884375 4.1646875 -17.5625 3.3125 C-12.56493862 -0.88545156 -6.12683164 -0.21795053 0 0 Z " fill="#FD792D" transform="translate(638,620)"/>
<path d="M0 0 C1.13082516 3.39247548 0.88850516 5.23857931 0.44140625 8.76171875 C0.30283203 9.87998047 0.16425781 10.99824219 0.02148438 12.15039062 C-0.12998047 13.31763672 -0.28144531 14.48488281 -0.4375 15.6875 C-0.58509766 16.86634766 -0.73269531 18.04519531 -0.88476562 19.25976562 C-1.2505183 22.17398855 -1.62250126 25.08727922 -2 28 C-2.33 28 -2.66 28 -3 28 C-3.1963696 25.62543835 -3.38231294 23.25079981 -3.5625 20.875 C-3.61857422 20.20984375 -3.67464844 19.5446875 -3.73242188 18.859375 C-4.03625857 14.7271959 -3.85227531 11.05304259 -3 7 C-2.67 7 -2.34 7 -2 7 C-1.34 4.69 -0.68 2.38 0 0 Z " fill="#FD843D" transform="translate(283,453)"/>
<path d="M0 0 C0.66 0.99 1.32 1.98 2 3 C-1.96570677 7.38808974 -5.01191871 10.68554313 -11 12 C-7.49102731 7.81576108 -3.91939465 3.80411834 0 0 Z " fill="#FD782E" transform="translate(606,641)"/>
<path d="M0 0 C0 0.66 0 1.32 0 2 C0.66 2.33 1.32 2.66 2 3 C-4.67728333 2.41339754 -11.34063095 1.76418989 -18 1 C-12.28300528 -2.21422148 -6.22366622 -1.24473324 0 0 Z " fill="#FE7A31" transform="translate(550,268)"/>
<path d="M0 0 C4.92604873 0.43465136 7.51891224 2.59626975 11 6 C12.375 8.8125 12.375 8.8125 13 11 C9.44297608 9.0238756 6.86252432 6.86252432 4 4 C3.01 3.67 2.02 3.34 1 3 C0.67 2.01 0.34 1.02 0 0 Z " fill="#FD792F" transform="translate(638,621)"/>
<path d="M0 0 C0 0.33 0 0.66 0 1 C-2.74755487 1.69888677 -5.49731197 2.3843988 -8.25 3.0625 C-9.02730469 3.26166016 -9.80460937 3.46082031 -10.60546875 3.66601562 C-11.35957031 3.84970703 -12.11367188 4.03339844 -12.890625 4.22265625 C-13.58188477 4.39547119 -14.27314453 4.56828613 -14.98535156 4.74633789 C-17.25070809 5.03156637 -18.8368312 4.68076195 -21 4 C-19.02 3.67 -17.04 3.34 -15 3 C-15 2.34 -15 1.68 -15 1 C-9.42567486 -0.66251802 -5.6932495 -1.18609365 0 0 Z " fill="#FD7F36" transform="translate(468,271)"/>
<path d="M0 0 C0.99 0.33 1.98 0.66 3 1 C4.23828125 3.6171875 4.23828125 3.6171875 5.3125 6.875 C5.67988281 7.94492187 6.04726563 9.01484375 6.42578125 10.1171875 C7 13 7 13 5 16 C4.1605118 13.89828133 3.32860344 11.79353375 2.5 9.6875 C2.0359375 8.51574219 1.571875 7.34398437 1.09375 6.13671875 C0 3 0 3 0 0 Z " fill="#FC7932" transform="translate(250,582)"/>
<path d="M0 0 C2.5935448 0.38256192 3.79113994 0.79065081 5.66796875 2.671875 C10.72417428 9.58678848 10.72417428 9.58678848 11 14 C6.45924219 9.85989729 3.28157862 5.17609824 0 0 Z " fill="#FD782F" transform="translate(607,410)"/>
<path d="M0 0 C0.33 0.66 0.66 1.32 1 2 C-0.07518118 4.44332726 -1.19808566 6.76754523 -2.4375 9.125 C-2.77587891 9.78371094 -3.11425781 10.44242187 -3.46289062 11.12109375 C-4.30149926 12.75106547 -5.14984811 14.37601909 -6 16 C-6.33 16 -6.66 16 -7 16 C-6.56952295 9.86570207 -5.4459553 6.11672151 -2 1 C-1.34 0.67 -0.68 0.34 0 0 Z " fill="#FD7930" transform="translate(305,391)"/>
<path d="M0 0 C0.33 0 0.66 0 1 0 C1.50579714 3.04080421 2.00480759 6.08246646 2.5 9.125 C2.64308594 9.9809375 2.78617188 10.836875 2.93359375 11.71875 C3.65695734 16.19671505 4.17918816 20.44563435 4 25 C3.67 24.34 3.34 23.68 3 23 C2.34 23 1.68 23 1 23 C1.01160156 22.25234375 1.02320313 21.5046875 1.03515625 20.734375 C1.04417969 19.74953125 1.05320312 18.7646875 1.0625 17.75 C1.07410156 16.77546875 1.08570313 15.8009375 1.09765625 14.796875 C1.01106432 12.31688202 0.62360471 10.37749296 0 8 C-0.12205329 5.32459184 -0.04467313 2.68038762 0 0 Z " fill="#FB8744" transform="translate(774,431)"/>
<path d="M0 0 C0.99 0.33 1.98 0.66 3 1 C-0.9700218 5.21814817 -5.30840284 8.61227103 -10 12 C-8.52278578 8.54798361 -6.56205999 6.35038064 -3.875 3.75 C-3.15054687 3.04359375 -2.42609375 2.3371875 -1.6796875 1.609375 C-1.12539063 1.07828125 -0.57109375 0.5471875 0 0 Z " fill="#FC7931" transform="translate(317,302)"/>
<path d="M0 0 C0.33 0 0.66 0 1 0 C1.19392201 5.52677733 0.7479503 9.75614911 -1 15 C-1.66 14.67 -2.32 14.34 -3 14 C-2.48594831 9.03083364 -1.76615118 4.70973649 0 0 Z " fill="#FD7931" transform="translate(247,417)"/>
<path d="M0 0 C4.83628305 0.99043705 9.47618873 1.95698846 14 4 C11.64028189 5.48494847 10.47803191 6.07311076 7.67578125 5.64453125 C6.89589844 5.36996094 6.11601563 5.09539062 5.3125 4.8125 C4.52488281 4.55082031 3.73726562 4.28914062 2.92578125 4.01953125 C1 3 1 3 0 0 Z " fill="#FE7B30" transform="translate(595,237)"/>
<path d="M0 0 C0 0.99 0 1.98 0 3 C-5.45769811 3.11138159 -10.61509359 2.91657981 -16 2 C-16 1.67 -16 1.34 -16 1 C-10.59255982 0.22750855 -5.46137814 -0.09752461 0 0 Z " fill="#FD813A" transform="translate(456,743)"/>
<path d="M0 0 C3.99926986 2.97088618 6.92118304 6.12948725 10 10 C9.01 10.33 8.02 10.66 7 11 C3.17330957 7.57611908 1.27721526 4.99275057 0 0 Z " fill="#FE7B30" transform="translate(328,633)"/>
<path d="M0 0 C0.66 0.33 1.32 0.66 2 1 C-1.67832017 5.52615993 -5.41086363 9.39424999 -10 13 C-8.59799333 8.5390697 -6.40216594 6.15322697 -3 3 C-2.401875 2.401875 -1.80375 1.80375 -1.1875 1.1875 C-0.795625 0.795625 -0.40375 0.40375 0 0 Z " fill="#FE8239" transform="translate(622,622)"/>
<path d="M0 0 C0.33 0 0.66 0 1 0 C1 6.6 1 13.2 1 20 C0.67 20 0.34 20 0 20 C-0.3396019 18.12612523 -0.67138691 16.25083303 -1 14.375 C-1.2784375 12.80878906 -1.2784375 12.80878906 -1.5625 11.2109375 C-1.99135527 8.06344618 -2.21798627 5.1698837 -2 2 C-1.34 1.34 -0.68 0.68 0 0 Z " fill="#FD843E" transform="translate(336,511)"/>
<path d="M0 0 C0.66 1.32 1.32 2.64 2 4 C1.34 4 0.68 4 0 4 C0.020625 5.0725 0.04125 6.145 0.0625 7.25 C0.0142016 10.14790424 -0.13155885 12.28612141 -1 15 C-1.66 15 -2.32 15 -3 15 C-3.33 15.66 -3.66 16.32 -4 17 C-3.45018084 10.95198929 -2.09570426 5.69398894 0 0 Z " fill="#FD7F37" transform="translate(341,442)"/>
<path d="M0 0 C-1.65 0.66 -3.3 1.32 -5 2 C-5 2.33 -5 2.66 -5 3 C-6.2375 3.04125 -7.475 3.0825 -8.75 3.125 C-9.79414063 3.15980469 -9.79414063 3.15980469 -10.859375 3.1953125 C-13.30155975 2.97248542 -14.88636771 2.20915 -17 1 C-14.91835982 0.63601378 -12.83459438 0.28416713 -10.75 -0.0625 C-9.00976562 -0.35833984 -9.00976562 -0.35833984 -7.234375 -0.66015625 C-4.37477376 -0.9606216 -2.66674071 -0.9439206 0 0 Z " fill="#FE8036" transform="translate(491,597)"/>
<path d="M0 0 C0.66 0 1.32 0 2 0 C2 0.66 2 1.32 2 2 C2.639375 2.2475 3.27875 2.495 3.9375 2.75 C6 4 6 4 6.625 6.0625 C6.74875 6.701875 6.8725 7.34125 7 8 C7.66 8.33 8.32 8.66 9 9 C8.34 9.66 7.68 10.32 7 11 C5.83051998 9.35616456 4.6644855 7.70987731 3.5 6.0625 C2.8503125 5.14597656 2.200625 4.22945312 1.53125 3.28515625 C0 1 0 1 0 0 Z " fill="#FD7C34" transform="translate(275,635)"/>
<path d="M0 0 C5.28 0.66 10.56 1.32 16 2 C16 2.99 16 3.98 16 5 C10.53135543 3.98408579 5.23609987 2.92908943 0 1 C0 0.67 0 0.34 0 0 Z " fill="#FD7D32" transform="translate(425,635)"/>
<path d="M0 0 C2 1.375 2 1.375 4 3 C4 3.66 4 4.32 4 5 C4.66 5 5.32 5 6 5 C6 5.66 6 6.32 6 7 C7.32 7.66 8.64 8.32 10 9 C9.01 9.33 8.02 9.66 7 10 C2.6477456 7.34618634 1.2228945 4.89157798 0 0 Z " fill="#FD7B32" transform="translate(403,568)"/>
<path d="M0 0 C0.62003906 0.34160156 1.24007813 0.68320312 1.87890625 1.03515625 C0.27858488 1.8758504 -1.32650546 2.7074713 -2.93359375 3.53515625 C-4.27357422 4.23125 -4.27357422 4.23125 -5.640625 4.94140625 C-8.12109375 6.03515625 -8.12109375 6.03515625 -11.12109375 6.03515625 C-3.77624514 -1.7177395 -3.77624514 -1.7177395 0 0 Z " fill="#FD782E" transform="translate(496.12109375,461.96484375)"/>
<path d="M0 0 C5.91260345 -0.25706972 11.23918159 0.7017874 17 2 C17 2.33 17 2.66 17 3 C14.69 3.33 12.38 3.66 10 4 C10 3.34 10 2.68 10 2 C7.69 2.33 5.38 2.66 3 3 C3 2.34 3 1.68 3 1 C2.01 0.67 1.02 0.34 0 0 Z " fill="#FE823A" transform="translate(532,323)"/>
<path d="M0 0 C1.28970703 0.16048828 1.28970703 0.16048828 2.60546875 0.32421875 C3.49621094 0.4325 4.38695312 0.54078125 5.3046875 0.65234375 C7.82450036 1.01627277 10.31289609 1.43303513 12.79296875 2.01171875 C12.79296875 2.34171875 12.79296875 2.67171875 12.79296875 3.01171875 C5.63402006 4.25076756 5.63402006 4.25076756 1.79296875 3.01171875 C-0.20491563 2.66593107 -2.20462576 2.33028326 -4.20703125 2.01171875 C-2.20703125 0.01171875 -2.20703125 0.01171875 0 0 Z " fill="#FD7E34" transform="translate(559.20703125,227.98828125)"/>
<path d="M0 0 C-1 2 -1 2 -2.99609375 2.703125 C-3.80175781 2.88359375 -4.60742188 3.0640625 -5.4375 3.25 C-6.24058594 3.44078125 -7.04367187 3.6315625 -7.87109375 3.828125 C-8.92490234 3.91320312 -8.92490234 3.91320312 -10 4 C-10.66 3.34 -11.32 2.68 -12 2 C-10.56656 1.46809459 -9.12804633 0.94984742 -7.6875 0.4375 C-6.48673828 0.00244141 -6.48673828 0.00244141 -5.26171875 -0.44140625 C-3 -1 -3 -1 0 0 Z " fill="#FE792F" transform="translate(458,330)"/>
<path d="M0 0 C0.66 0.33 1.32 0.66 2 1 C-0.25740623 3.33524782 -2.2805761 5.18705073 -5 7 C-6.32 6.67 -7.64 6.34 -9 6 C-6.03 4.02 -3.06 2.04 0 0 Z " fill="#FD7A30" transform="translate(368,262)"/>
<path d="M0 0 C2.43357796 2.43357796 2.41100776 3.51498869 2.75 6.875 C2.84796875 7.73867188 2.9459375 8.60234375 3.046875 9.4921875 C2.99583479 12.22283899 2.39884193 13.68653065 1 16 C0.83125293 14.08351538 0.66508357 12.16680367 0.5 10.25 C0.4071875 9.18265625 0.314375 8.1153125 0.21875 7.015625 C0.04947717 4.6820782 0 2.33967818 0 0 Z " fill="#FC863F" transform="translate(517,536)"/>
<path d="M0 0 C1.77119803 0.14133499 3.54195287 0.28823208 5.3125 0.4375 C6.29863281 0.51871094 7.28476562 0.59992188 8.30078125 0.68359375 C11 1 11 1 14 2 C14.33 2.99 14.66 3.98 15 5 C9.88634986 3.9318153 4.92772031 2.76892524 0 1 C0 0.67 0 0.34 0 0 Z " fill="#FD7F37" transform="translate(574,276)"/>
<path d="M0 0 C2.55803184 3.83704776 4.34505724 7.75712791 3.625 12.4375 C3.41875 12.953125 3.2125 13.46875 3 14 C3 13.34 3 12.68 3 12 C2.34 12 1.68 12 1 12 C0.45533613 7.915021 0 4.1274515 0 0 Z " fill="#FC7F38" transform="translate(768,408)"/>
<path d="M0 0 C0.66 1.32 1.32 2.64 2 4 C-0.31 5.32 -2.62 6.64 -5 8 C-5 5 -5 5 -2.5 2.3125 C-1.675 1.549375 -0.85 0.78625 0 0 Z " fill="#FE7A2E" transform="translate(453,439)"/>
<path d="M0 0 C-2.70188004 1.80125336 -4.93057703 3.00243753 -8 4 C-8.99 3.67 -9.98 3.34 -11 3 C-10 1 -10 1 -7.75 -0.1875 C-4.69751418 -1.08937081 -3.02265546 -0.86361585 0 0 Z " fill="#FE7B32" transform="translate(470,371)"/>
<path d="M0 0 C0 0.99 0 1.98 0 3 C-4.29 2.67 -8.58 2.34 -13 2 C-13 1.67 -13 1.34 -13 1 C-8.61414671 0.29826347 -4.44209357 -0.10834375 0 0 Z " fill="#FD8137" transform="translate(456,639)"/>
<path d="M0 0 C2.64465038 3.1254959 3.84414715 6.08788267 5 10 C4.01 10 3.02 10 2 10 C0.39644899 6.49223216 -0.22036864 3.85645121 0 0 Z " fill="#FE7B2F" transform="translate(297,583)"/>
<path d="M0 0 C0.33 0 0.66 0 1 0 C1.66 5.28 2.32 10.56 3 16 C1 14 1 14 0.875 10.875 C0.91625 9.92625 0.9575 8.9775 1 8 C0.34 8 -0.32 8 -1 8 C-0.67 5.36 -0.34 2.72 0 0 Z " fill="#FD853D" transform="translate(281,525)"/>
<path d="M0 0 C2.39073445 3.82517513 2.55966552 7.59665524 3 12 C2.67 11.34 2.34 10.68 2 10 C1.34 10 0.68 10 0 10 C-0.74926071 6.33694766 -1.2380014 3.57644848 0 0 Z " fill="#FE7D35" transform="translate(379,517)"/>
<path d="M0 0 C2.96052484 3.36423277 3.92289822 6.69159287 5 11 C1.65756352 9.10595266 1.02002851 8.05908409 -0.25 4.3125 C-0.4975 3.219375 -0.745 2.12625 -1 1 C-0.67 0.67 -0.34 0.34 0 0 Z " fill="#FD7930" transform="translate(581,463)"/>
<path d="M0 0 C0.33 0 0.66 0 1 0 C1.24900646 1.93505023 1.47356242 3.87325934 1.6875 5.8125 C1.87892578 7.43091797 1.87892578 7.43091797 2.07421875 9.08203125 C2 12 2 12 0.51953125 13.88671875 C0.01808594 14.25410156 -0.48335937 14.62148438 -1 15 C-1.09038099 9.84828377 -0.84681133 5.08086796 0 0 Z " fill="#FC8643" transform="translate(239,451)"/>
<path d="M0 0 C2.96404505 2.80804268 5.44499019 5.18315774 7 9 C4.37098712 7.47793991 2.15634036 6.15634036 0 4 C0 2.68 0 1.36 0 0 Z " fill="#FD792F" transform="translate(719,320)"/>
<path d="M0 0 C0 3.86695678 -1.41909971 6.5088452 -3 10 C-3.33 10 -3.66 10 -4 10 C-4.25 7.25 -4.25 7.25 -4 4 C-2 1.625 -2 1.625 0 0 Z " fill="#FD792F" transform="translate(391,437)"/>
<path d="M0 0 C3.91211733 1.15585285 6.8745041 2.35534962 10 5 C3.49955237 4.38675022 3.49955237 4.38675022 1.0625 2.5 C0 1 0 1 0 0 Z " fill="#FD7A30" transform="translate(381,678)"/>
<path d="M0 0 C2.45823172 3.68734758 3.01242616 6.69699971 4 11 C3.01 10.67 2.02 10.34 1 10 C-0.1577506 6.52674819 -0.06866652 3.63932552 0 0 Z " fill="#FD7930" transform="translate(382,529)"/>
<path d="M0 0 C0.99 0.33 1.98 0.66 3 1 C0.69 3.31 -1.62 5.62 -4 8 C-4.33 7.34 -4.66 6.68 -5 6 C-3.35 4.02 -1.7 2.04 0 0 Z " fill="#FE6A1A" transform="translate(390,367)"/>
<path d="M0 0 C0.99 0.33 1.98 0.66 3 1 C2.0479279 2.00596297 1.08812654 3.00461563 0.125 4 C-0.40867187 4.556875 -0.94234375 5.11375 -1.4921875 5.6875 C-3 7 -3 7 -5 7 C-3.70700306 4.11562221 -2.34058637 2.12780579 0 0 Z " fill="#FE6717" transform="translate(312,309)"/>
<path d="M0 0 C0.66 0.33 1.32 0.66 2 1 C-0.25 3.5625 -0.25 3.5625 -3 6 C-4.32 5.67 -5.64 5.34 -7 5 C-4.69 3.35 -2.38 1.7 0 0 Z " fill="#FE7D32" transform="translate(569,672)"/>
<path d="M0 0 C0 3.99904969 -1.72586967 5.80200422 -4 9 C-4.33 8.01 -4.66 7.02 -5 6 C-2.66666667 1.33333333 -2.66666667 1.33333333 0 0 Z " fill="#FC782E" transform="translate(650,650)"/>
<path d="M0 0 C1.52519276 0.08937803 3.04681929 0.24537146 4.5625 0.4375 C5.38878906 0.53933594 6.21507812 0.64117188 7.06640625 0.74609375 C7.70449219 0.82988281 8.34257812 0.91367187 9 1 C9 1.33 9 1.66 9 2 C4.38 2.33 -0.24 2.66 -5 3 C-3.68 2.34 -2.36 1.68 -1 1 C-0.67 0.67 -0.34 0.34 0 0 Z " fill="#FD823A" transform="translate(483,639)"/>
<path d="M0 0 C4.42857143 5.14285714 4.42857143 5.14285714 5 9 C2 8 2 8 0.25 5.0625 C-0.1625 4.051875 -0.575 3.04125 -1 2 C-0.67 1.34 -0.34 0.68 0 0 Z " fill="#FD792D" transform="translate(305,599)"/>
<path d="M0 0 C0.33 0 0.66 0 1 0 C1.36923077 6.52307692 1.36923077 6.52307692 -0.5 8.9375 C-0.995 9.288125 -1.49 9.63875 -2 10 C-3 8 -3 8 -2.44140625 6.0546875 C-2.15136719 5.33539062 -1.86132812 4.61609375 -1.5625 3.875 C-1.27503906 3.15054688 -0.98757813 2.42609375 -0.69140625 1.6796875 C-0.46324219 1.12539063 -0.23507812 0.57109375 0 0 Z " fill="#FD7C32" transform="translate(546,540)"/>
<path d="M0 0 C-2.26185454 2.26185454 -3.96983561 3.03921617 -7 4 C-7.99 3.67 -8.98 3.34 -10 3 C-8.0130571 -0.97388579 -3.91761109 -0.08705802 0 0 Z " fill="#FD782F" transform="translate(742,528)"/>
<path d="M0 0 C1.60080151 4.00200378 0.29279692 7.04556236 -1 11 C-2.61949011 8.42786866 -3.04408751 7.32330841 -2.625 4.25 C-2.41875 3.5075 -2.2125 2.765 -2 2 C-1.34 2 -0.68 2 0 2 C0 1.34 0 0.68 0 0 Z " fill="#FB7E37" transform="translate(776,482)"/>
<path d="M0 0 C6.625 0.75 6.625 0.75 10 3 C7.18263828 3.78260048 5.54030762 4.19511109 2.75 3.1875 C1 2 1 2 0 0 Z " fill="#FE7C33" transform="translate(526,419)"/>
<path d="M0 0 C0.99 0.33 1.98 0.66 3 1 C4.3125 3.875 4.3125 3.875 5 7 C4.01 8.485 4.01 8.485 3 10 C2.01 6.7 1.02 3.4 0 0 Z " fill="#FD7930" transform="translate(719,404)"/>
<path d="M0 0 C0.66 0.33 1.32 0.66 2 1 C0.68 2.65 -0.64 4.3 -2 6 C-3.32 5.67 -4.64 5.34 -6 5 C-4.02 3.35 -2.04 1.7 0 0 Z " fill="#FE7D31" transform="translate(579,665)"/>
<path d="M0 0 C2.625 0.6875 2.625 0.6875 5 2 C5.33 2.99 5.66 3.98 6 5 C3.03 4.01 0.06 3.02 -3 2 C-2.01 1.34 -1.02 0.68 0 0 Z " fill="#FD792D" transform="translate(416,629)"/>
<path d="M0 0 C0.33 0 0.66 0 1 0 C2.35384615 7.38461538 2.35384615 7.38461538 0.5625 10.5 C0.046875 10.995 -0.46875 11.49 -1 12 C-1.14285714 3.42857143 -1.14285714 3.42857143 0 0 Z " fill="#FD8039" transform="translate(430,476)"/>
<path d="M0 0 C2.15377564 2.62198774 3.40072174 4.64404172 4 8 C2.0625 7.3125 2.0625 7.3125 0 6 C-0.8125 3.4375 -0.8125 3.4375 -1 1 C-0.67 0.67 -0.34 0.34 0 0 Z " fill="#FD792F" transform="translate(686,473)"/>
<path d="M0 0 C3.37503669 1.1858237 5.64722731 2.27573689 8 5 C6.68 5.33 5.36 5.66 4 6 C4 5.34 4 4.68 4 4 C3.01 3.67 2.02 3.34 1 3 C0.67 2.01 0.34 1.02 0 0 Z " fill="#FC7C32" transform="translate(657,266)"/>
<path d="M0 0 C2.97 0 5.94 0 9 0 C5.81237635 2.12508244 3.73487777 2.5020163 0 3 C0 2.01 0 1.02 0 0 Z " fill="#FD7C32" transform="translate(526,737)"/>
<path d="M0 0 C4.455 0.99 4.455 0.99 9 2 C7.02 2.99 7.02 2.99 5 4 C2.30066074 3.07451225 1.28813232 2.57626463 0 0 Z " fill="#FD7D33" transform="translate(404,689)"/>
<path d="M0 0 C2.64 1.65 5.28 3.3 8 5 C7.01 5.495 7.01 5.495 6 6 C3.96855359 5.06553465 1.96466413 4.06775224 0 3 C0 2.01 0 1.02 0 0 Z " fill="#FD7C32" transform="translate(417,581)"/>
<path d="M0 0 C5.75 1.625 5.75 1.625 8 5 C4.33776842 4.50510384 2.33006074 3.94323463 0 1 C0 0.67 0 0.34 0 0 Z " fill="#FE7A2F" transform="translate(505,525)"/>
<path d="M0 0 C1.32 0.33 2.64 0.66 4 1 C4.66 3.31 5.32 5.62 6 8 C3.33264727 5.51047079 1.44253657 3.36591866 0 0 Z " fill="#FC7830" transform="translate(688,352)"/>
<path d="M0 0 C0.66 0.33 1.32 0.66 2 1 C2 1.66 2 2.32 2 3 C-1 5 -1 5 -3.1875 4.625 C-3.785625 4.41875 -4.38375 4.2125 -5 4 C-3.35 2.68 -1.7 1.36 0 0 Z " fill="#FD7A30" transform="translate(411,350)"/>
<path d="M0 0 C0.33 0.99 0.66 1.98 1 3 C-0.65 4.65 -2.3 6.3 -4 8 C-4 4.09161134 -2.49432124 2.88405893 0 0 Z " fill="#FC7B32" transform="translate(291,332)"/>
<path d="M0 0 C2.25 0.25 2.25 0.25 4 1 C2.02 2.32 0.04 3.64 -2 5 C-2.66 4.67 -3.32 4.34 -4 4 C-2.25 1.9375 -2.25 1.9375 0 0 Z " fill="#FD7A30" transform="translate(389,299)"/>
<path d="M0 0 C0.99 0.495 0.99 0.495 2 1 C1.34 1.66 0.68 2.32 0 3 C0 2.01 0 1.02 0 0 Z " fill="#F9752B" transform="translate(432,464)"/>
<path d="M0 0 C0.66 0 1.32 0 2 0 C1.67 0.66 1.34 1.32 1 2 C0.67 1.34 0.34 0.68 0 0 Z " fill="#FE762C" transform="translate(428,638)"/>
<path d="" fill="#F8752C" transform="translate(0,0)"/>
<path d="M0 0 C0.66 0 1.32 0 2 0 C1.67 0.66 1.34 1.32 1 2 C0.67 1.34 0.34 0.68 0 0 Z " fill="#FE792A" transform="translate(514,529)"/>
<path d="M0 0 C0.99 0.495 0.99 0.495 2 1 C1.01 1.495 1.01 1.495 0 2 C0 1.34 0 0.68 0 0 Z " fill="#FD782C" transform="translate(499,520)"/>
<path d="" fill="#FF782A" transform="translate(0,0)"/>
<path d="M0 0 C3 1 3 1 3 1 Z " fill="#FA7A32" transform="translate(701,488)"/>
<path d="M0 0 C0.99 0.495 0.99 0.495 2 1 C1.01 1.495 1.01 1.495 0 2 C0 1.34 0 0.68 0 0 Z " fill="#FA772D" transform="translate(416,344)"/>
<path d="M0 0 C0.66 0.66 1.32 1.32 2 2 C1.34 2 0.68 2 0 2 C0 1.34 0 0.68 0 0 Z " fill="#FE7529" transform="translate(676,341)"/>
<path d="M0 0 C3 1 3 1 3 1 Z " fill="#F67930" transform="translate(457,226)"/>
<path d="M0 0 C2 1 2 1 2 1 Z " fill="#F9762D" transform="translate(494,747)"/>
<path d="M0 0 C2 1 2 1 2 1 Z " fill="#FA762E" transform="translate(523,742)"/>
<path d="M0 0 C2 1 2 1 2 1 Z " fill="#FA762E" transform="translate(386,731)"/>
<path d="M0 0 C2 1 2 1 2 1 Z " fill="#F7752B" transform="translate(567,725)"/>
<path d="M0 0 C2 1 2 1 2 1 Z " fill="#FF7826" transform="translate(470,700)"/>
<path d="M0 0 C2 1 2 1 2 1 Z " fill="#FF792C" transform="translate(497,698)"/>
<path d="M0 0 C2 1 2 1 2 1 Z " fill="#FF792C" transform="translate(529,690)"/>
<path d="M0 0 C2 1 2 1 2 1 Z " fill="#F9782B" transform="translate(552,680)"/>
<path d="" fill="#FB782D" transform="translate(0,0)"/>
<path d="M0 0 C2 1 2 1 2 1 Z " fill="#FF762B" transform="translate(539,622)"/>
<path d="M0 0 C2 1 2 1 2 1 Z " fill="#FD772C" transform="translate(360,589)"/>
<path d="M0 0 C2 1 2 1 2 1 Z " fill="#FE762A" transform="translate(506,585)"/>
<path d="M0 0 C2 1 2 1 2 1 Z " fill="#FF762B" transform="translate(508,584)"/>
<path d="M0 0 C2 1 2 1 2 1 Z " fill="#FE752B" transform="translate(356,582)"/>
<path d="" fill="#F4752F" transform="translate(0,0)"/>
<path d="" fill="#F67630" transform="translate(0,0)"/>
<path d="" fill="#F77830" transform="translate(0,0)"/>
<path d="" fill="#FE782D" transform="translate(0,0)"/>
<path d="" fill="#FE742A" transform="translate(0,0)"/>
<path d="" fill="#FE7529" transform="translate(0,0)"/>
<path d="" fill="#FE782B" transform="translate(0,0)"/>
<path d="" fill="#FF772C" transform="translate(0,0)"/>
<path d="M0 0 C2 1 2 1 2 1 Z " fill="#FD7629" transform="translate(537,481)"/>
<path d="" fill="#FE782B" transform="translate(0,0)"/>
<path d="" fill="#FF772B" transform="translate(0,0)"/>
<path d="M0 0 C2 1 2 1 2 1 Z " fill="#FF762B" transform="translate(500,463)"/>
<path d="" fill="#FD782D" transform="translate(0,0)"/>
<path d="M0 0 C2 1 2 1 2 1 Z " fill="#FE762A" transform="translate(627,446)"/>
<path d="" fill="#FE762A" transform="translate(0,0)"/>
<path d="" fill="#FE7325" transform="translate(0,0)"/>
<path d="" fill="#FD782C" transform="translate(0,0)"/>
<path d="" fill="#FD772B" transform="translate(0,0)"/>
<path d="" fill="#FF782B" transform="translate(0,0)"/>
<path d="M0 0 C2 1 2 1 2 1 Z " fill="#FA742B" transform="translate(523,416)"/>
<path d="M0 0 C2 1 2 1 2 1 Z " fill="#FB782D" transform="translate(488,416)"/>
<path d="M0 0 C2 1 2 1 2 1 Z " fill="#FE782C" transform="translate(480,416)"/>
<path d="" fill="#F2762E" transform="translate(0,0)"/>
<path d="" fill="#FF7A2C" transform="translate(0,0)"/>
<path d="M0 0 C2 1 2 1 2 1 Z " fill="#FF772C" transform="translate(579,390)"/>
<path d="" fill="#FA772D" transform="translate(0,0)"/>
<path d="" fill="#F9772E" transform="translate(0,0)"/>
<path d="M0 0 C2 1 2 1 2 1 Z " fill="#FF762A" transform="translate(500,367)"/>
<path d="M0 0 C2 1 2 1 2 1 Z " fill="#FA7929" transform="translate(433,336)"/>
<path d="M0 0 C2 1 2 1 2 1 Z " fill="#FA752D" transform="translate(564,328)"/>
<path d="M0 0 C2 1 2 1 2 1 Z " fill="#FB7327" transform="translate(419,287)"/>
<path d="" fill="#FF752B" transform="translate(0,0)"/>
<path d="M0 0 C2 1 2 1 2 1 Z " fill="#FB7429" transform="translate(478,271)"/>
<path d="M0 0 C2 1 2 1 2 1 Z " fill="#F7782F" transform="translate(473,224)"/>
<path d="" fill="#796054" transform="translate(0,0)"/>
<path d="" fill="#696969" transform="translate(0,0)"/>
<path d="" fill="#6B6159" transform="translate(0,0)"/>
<path d="" fill="#676664" transform="translate(0,0)"/>
<path d="" fill="#876553" transform="translate(0,0)"/>
<path d="" fill="#696866" transform="translate(0,0)"/>
<path d="" fill="#F5752C" transform="translate(0,0)"/>
<path d="" fill="#FA7630" transform="translate(0,0)"/>
<path d="" fill="#F9762D" transform="translate(0,0)"/>
<path d="" fill="#706F6F" transform="translate(0,0)"/>
<path d="" fill="#FA782C" transform="translate(0,0)"/>
<path d="" fill="#FB752A" transform="translate(0,0)"/>
<path d="" fill="#F9782F" transform="translate(0,0)"/>
<path d="" fill="#FB782F" transform="translate(0,0)"/>
<path d="" fill="#F9762D" transform="translate(0,0)"/>
<path d="" fill="#F7782D" transform="translate(0,0)"/>
<path d="" fill="#FA742A" transform="translate(0,0)"/>
<path d="" fill="#FA772D" transform="translate(0,0)"/>
<path d="" fill="#FA762E" transform="translate(0,0)"/>
<path d="" fill="#F97832" transform="translate(0,0)"/>
<path d="" fill="#FA732B" transform="translate(0,0)"/>
<path d="" fill="#F77730" transform="translate(0,0)"/>
<path d="" fill="#F97933" transform="translate(0,0)"/>
<path d="" fill="#F7742A" transform="translate(0,0)"/>
<path d="" fill="#F57630" transform="translate(0,0)"/>
<path d="" fill="#F7772D" transform="translate(0,0)"/>
<path d="" fill="#6F6D6D" transform="translate(0,0)"/>
<path d="" fill="#F6762E" transform="translate(0,0)"/>
<path d="" fill="#F5782F" transform="translate(0,0)"/>
<path d="" fill="#F87629" transform="translate(0,0)"/>
<path d="" fill="#F7772D" transform="translate(0,0)"/>
<path d="" fill="#F7752C" transform="translate(0,0)"/>
<path d="" fill="#F6752F" transform="translate(0,0)"/>
<path d="" fill="#FF7727" transform="translate(0,0)"/>
<path d="" fill="#FF7728" transform="translate(0,0)"/>
<path d="" fill="#FF7526" transform="translate(0,0)"/>
<path d="" fill="#FD752A" transform="translate(0,0)"/>
<path d="" fill="#FC7529" transform="translate(0,0)"/>
<path d="" fill="#F77930" transform="translate(0,0)"/>
<path d="" fill="#F7772E" transform="translate(0,0)"/>
<path d="" fill="#F8772E" transform="translate(0,0)"/>
<path d="" fill="#FF7628" transform="translate(0,0)"/>
<path d="" fill="#FD7829" transform="translate(0,0)"/>
<path d="" fill="#F5762F" transform="translate(0,0)"/>
<path d="" fill="#FC7A2D" transform="translate(0,0)"/>
<path d="" fill="#FF762A" transform="translate(0,0)"/>
<path d="" fill="#F9752C" transform="translate(0,0)"/>
<path d="" fill="#F0732D" transform="translate(0,0)"/>
<path d="" fill="#F37832" transform="translate(0,0)"/>
<path d="" fill="#F4762F" transform="translate(0,0)"/>
<path d="" fill="#FC782E" transform="translate(0,0)"/>
<path d="" fill="#FE7A2D" transform="translate(0,0)"/>
<path d="" fill="#FC742B" transform="translate(0,0)"/>
<path d="" fill="#FD7529" transform="translate(0,0)"/>
<path d="" fill="#F7752C" transform="translate(0,0)"/>
<path d="" fill="#FD7527" transform="translate(0,0)"/>
<path d="" fill="#F9772E" transform="translate(0,0)"/>
<path d="" fill="#F57831" transform="translate(0,0)"/>
<path d="" fill="#F87830" transform="translate(0,0)"/>
<path d="" fill="#F6782D" transform="translate(0,0)"/>
<path d="" fill="#FC7426" transform="translate(0,0)"/>
<path d="" fill="#F8772E" transform="translate(0,0)"/>
<path d="" fill="#F5782A" transform="translate(0,0)"/>
<path d="" fill="#F7752A" transform="translate(0,0)"/>
<path d="" fill="#7B7068" transform="translate(0,0)"/>
<path d="" fill="#FD772C" transform="translate(0,0)"/>
<path d="" fill="#FE772B" transform="translate(0,0)"/>
<path d="" fill="#FF7830" transform="translate(0,0)"/>
<path d="" fill="#FC7629" transform="translate(0,0)"/>
<path d="" fill="#FF782C" transform="translate(0,0)"/>
<path d="" fill="#FB7425" transform="translate(0,0)"/>
<path d="" fill="#FC782D" transform="translate(0,0)"/>
<path d="" fill="#FB782F" transform="translate(0,0)"/>
<path d="" fill="#BB744C" transform="translate(0,0)"/>
<path d="" fill="#FF792C" transform="translate(0,0)"/>
<path d="" fill="#FE782A" transform="translate(0,0)"/>
<path d="" fill="#F4722D" transform="translate(0,0)"/>
<path d="" fill="#FD772B" transform="translate(0,0)"/>
<path d="" fill="#FF772B" transform="translate(0,0)"/>
<path d="" fill="#FA792E" transform="translate(0,0)"/>
<path d="" fill="#FE7427" transform="translate(0,0)"/>
<path d="" fill="#F37630" transform="translate(0,0)"/>
<path d="" fill="#F7742A" transform="translate(0,0)"/>
<path d="" fill="#78716C" transform="translate(0,0)"/>
<path d="" fill="#FD7829" transform="translate(0,0)"/>
<path d="" fill="#FE782A" transform="translate(0,0)"/>
<path d="" fill="#FE772B" transform="translate(0,0)"/>
<path d="" fill="#FC7729" transform="translate(0,0)"/>
<path d="" fill="#FB7729" transform="translate(0,0)"/>
<path d="" fill="#FD7A2D" transform="translate(0,0)"/>
<path d="" fill="#FC782D" transform="translate(0,0)"/>
<path d="" fill="#FD772B" transform="translate(0,0)"/>
<path d="" fill="#F8792E" transform="translate(0,0)"/>
<path d="" fill="#FE782C" transform="translate(0,0)"/>
<path d="" fill="#FF7A2C" transform="translate(0,0)"/>
<path d="" fill="#F87528" transform="translate(0,0)"/>
<path d="" fill="#FA7529" transform="translate(0,0)"/>
<path d="" fill="#FF762A" transform="translate(0,0)"/>
<path d="" fill="#FF792B" transform="translate(0,0)"/>
<path d="" fill="#FE772B" transform="translate(0,0)"/>
<path d="" fill="#FD7525" transform="translate(0,0)"/>
<path d="" fill="#FB782E" transform="translate(0,0)"/>
<path d="" fill="#FB772A" transform="translate(0,0)"/>
<path d="" fill="#F67630" transform="translate(0,0)"/>
<path d="" fill="#FD772D" transform="translate(0,0)"/>
<path d="" fill="#FE782B" transform="translate(0,0)"/>
<path d="" fill="#FC752A" transform="translate(0,0)"/>
<path d="" fill="#FF782B" transform="translate(0,0)"/>
<path d="" fill="#FE772A" transform="translate(0,0)"/>
<path d="" fill="#FE782A" transform="translate(0,0)"/>
<path d="" fill="#FD772A" transform="translate(0,0)"/>
<path d="" fill="#F2772F" transform="translate(0,0)"/>
<path d="" fill="#FD782B" transform="translate(0,0)"/>
<path d="" fill="#FE792A" transform="translate(0,0)"/>
<path d="" fill="#FB772C" transform="translate(0,0)"/>
<path d="" fill="#FA762C" transform="translate(0,0)"/>
<path d="" fill="#FE782B" transform="translate(0,0)"/>
<path d="" fill="#F8762D" transform="translate(0,0)"/>
<path d="" fill="#F87830" transform="translate(0,0)"/>
<path d="" fill="#FD7527" transform="translate(0,0)"/>
<path d="" fill="#F9762B" transform="translate(0,0)"/>
<path d="" fill="#F6752B" transform="translate(0,0)"/>
<path d="" fill="#FE782C" transform="translate(0,0)"/>
<path d="" fill="#FF762A" transform="translate(0,0)"/>
<path d="" fill="#FF782C" transform="translate(0,0)"/>
<path d="" fill="#FC772C" transform="translate(0,0)"/>
<path d="" fill="#F4732B" transform="translate(0,0)"/>
<path d="" fill="#FD762C" transform="translate(0,0)"/>
<path d="" fill="#FD772C" transform="translate(0,0)"/>
<path d="" fill="#FE792B" transform="translate(0,0)"/>
<path d="" fill="#FF792D" transform="translate(0,0)"/>
<path d="" fill="#FE782F" transform="translate(0,0)"/>
<path d="" fill="#FD782E" transform="translate(0,0)"/>
<path d="" fill="#FE772C" transform="translate(0,0)"/>
<path d="" fill="#FF772B" transform="translate(0,0)"/>
<path d="" fill="#FE782E" transform="translate(0,0)"/>
<path d="" fill="#FE7326" transform="translate(0,0)"/>
<path d="" fill="#FF762B" transform="translate(0,0)"/>
<path d="" fill="#F9772E" transform="translate(0,0)"/>
<path d="" fill="#FB772E" transform="translate(0,0)"/>
<path d="" fill="#FC7730" transform="translate(0,0)"/>
<path d="" fill="#FB792E" transform="translate(0,0)"/>
<path d="" fill="#F57630" transform="translate(0,0)"/>
<path d="" fill="#FD792C" transform="translate(0,0)"/>
<path d="" fill="#FF792C" transform="translate(0,0)"/>
<path d="" fill="#787573" transform="translate(0,0)"/>
<path d="" fill="#FB752C" transform="translate(0,0)"/>
<path d="" fill="#F07834" transform="translate(0,0)"/>
<path d="" fill="#F47934" transform="translate(0,0)"/>
<path d="" fill="#FD7326" transform="translate(0,0)"/>
<path d="" fill="#FE782B" transform="translate(0,0)"/>
<path d="" fill="#FE762A" transform="translate(0,0)"/>
<path d="" fill="#FF772B" transform="translate(0,0)"/>
<path d="" fill="#FD7527" transform="translate(0,0)"/>
<path d="" fill="#FA782E" transform="translate(0,0)"/>
<path d="" fill="#FE782C" transform="translate(0,0)"/>
<path d="" fill="#EB7634" transform="translate(0,0)"/>
<path d="" fill="#FE782B" transform="translate(0,0)"/>
<path d="" fill="#FF772D" transform="translate(0,0)"/>
<path d="" fill="#FE762D" transform="translate(0,0)"/>
<path d="" fill="#F7782F" transform="translate(0,0)"/>
<path d="" fill="#FD7427" transform="translate(0,0)"/>
<path d="" fill="#FF752A" transform="translate(0,0)"/>
<path d="" fill="#FC762C" transform="translate(0,0)"/>
<path d="" fill="#FF782C" transform="translate(0,0)"/>
<path d="" fill="#F57831" transform="translate(0,0)"/>
<path d="" fill="#FD7930" transform="translate(0,0)"/>
<path d="" fill="#F8772C" transform="translate(0,0)"/>
<path d="" fill="#FE782B" transform="translate(0,0)"/>
<path d="" fill="#FE752A" transform="translate(0,0)"/>
<path d="" fill="#FE7426" transform="translate(0,0)"/>
<path d="" fill="#FF772B" transform="translate(0,0)"/>
<path d="" fill="#FE7529" transform="translate(0,0)"/>
<path d="" fill="#FF792C" transform="translate(0,0)"/>
<path d="" fill="#FC762B" transform="translate(0,0)"/>
<path d="" fill="#FF7527" transform="translate(0,0)"/>
<path d="" fill="#FF7629" transform="translate(0,0)"/>
<path d="" fill="#FE752A" transform="translate(0,0)"/>
<path d="" fill="#FE772A" transform="translate(0,0)"/>
<path d="" fill="#FC742B" transform="translate(0,0)"/>
<path d="" fill="#FB752E" transform="translate(0,0)"/>
<path d="" fill="#FE7729" transform="translate(0,0)"/>
<path d="" fill="#FF7827" transform="translate(0,0)"/>
<path d="" fill="#FF772C" transform="translate(0,0)"/>
<path d="" fill="#FF782C" transform="translate(0,0)"/>
<path d="" fill="#FE792D" transform="translate(0,0)"/>
<path d="" fill="#FF792C" transform="translate(0,0)"/>
<path d="" fill="#FF772A" transform="translate(0,0)"/>
<path d="" fill="#F77731" transform="translate(0,0)"/>
<path d="" fill="#FE7A2A" transform="translate(0,0)"/>
<path d="" fill="#FF782B" transform="translate(0,0)"/>
<path d="" fill="#FF7A2B" transform="translate(0,0)"/>
<path d="" fill="#FF762B" transform="translate(0,0)"/>
<path d="" fill="#FE7729" transform="translate(0,0)"/>
<path d="" fill="#FE772B" transform="translate(0,0)"/>
<path d="" fill="#FF772C" transform="translate(0,0)"/>
<path d="" fill="#FF772A" transform="translate(0,0)"/>
<path d="" fill="#FD792B" transform="translate(0,0)"/>
<path d="" fill="#FE7223" transform="translate(0,0)"/>
<path d="" fill="#FA782E" transform="translate(0,0)"/>
<path d="" fill="#F6742E" transform="translate(0,0)"/>
<path d="" fill="#FC792D" transform="translate(0,0)"/>
<path d="" fill="#FF7227" transform="translate(0,0)"/>
<path d="" fill="#F47830" transform="translate(0,0)"/>
<path d="" fill="#FC772C" transform="translate(0,0)"/>
<path d="" fill="#FF772C" transform="translate(0,0)"/>
<path d="" fill="#FE772C" transform="translate(0,0)"/>
<path d="" fill="#FC772B" transform="translate(0,0)"/>
<path d="" fill="#FD782B" transform="translate(0,0)"/>
<path d="" fill="#FE7529" transform="translate(0,0)"/>
<path d="" fill="#FD762C" transform="translate(0,0)"/>
<path d="" fill="#F77222" transform="translate(0,0)"/>
<path d="" fill="#FF782A" transform="translate(0,0)"/>
<path d="" fill="#FF7428" transform="translate(0,0)"/>
<path d="" fill="#FD762C" transform="translate(0,0)"/>
<path d="" fill="#FD772C" transform="translate(0,0)"/>
<path d="" fill="#FE772C" transform="translate(0,0)"/>
<path d="" fill="#FC752C" transform="translate(0,0)"/>
<path d="" fill="#F8762B" transform="translate(0,0)"/>
<path d="" fill="#F57833" transform="translate(0,0)"/>
<path d="" fill="#F67830" transform="translate(0,0)"/>
<path d="" fill="#FB7027" transform="translate(0,0)"/>
<path d="" fill="#FD772B" transform="translate(0,0)"/>
<path d="" fill="#FE7A2B" transform="translate(0,0)"/>
<path d="" fill="#FF772A" transform="translate(0,0)"/>
<path d="" fill="#FF762B" transform="translate(0,0)"/>
<path d="" fill="#FF7629" transform="translate(0,0)"/>
<path d="" fill="#FD772B" transform="translate(0,0)"/>
<path d="" fill="#F9752C" transform="translate(0,0)"/>
<path d="" fill="#F67B32" transform="translate(0,0)"/>
<path d="" fill="#FE772B" transform="translate(0,0)"/>
<path d="" fill="#FF772B" transform="translate(0,0)"/>
<path d="" fill="#FD762B" transform="translate(0,0)"/>
<path d="" fill="#FE772C" transform="translate(0,0)"/>
<path d="" fill="#FD782A" transform="translate(0,0)"/>
<path d="" fill="#FB772B" transform="translate(0,0)"/>
<path d="" fill="#FF7529" transform="translate(0,0)"/>
<path d="" fill="#F37831" transform="translate(0,0)"/>
<path d="" fill="#F97930" transform="translate(0,0)"/>
<path d="" fill="#FF762C" transform="translate(0,0)"/>
<path d="" fill="#FF7328" transform="translate(0,0)"/>
<path d="" fill="#FA782E" transform="translate(0,0)"/>
<path d="" fill="#FE772B" transform="translate(0,0)"/>
<path d="" fill="#FB782C" transform="translate(0,0)"/>
<path d="" fill="#FC7B2D" transform="translate(0,0)"/>
<path d="" fill="#F6732C" transform="translate(0,0)"/>
<path d="" fill="#FC782D" transform="translate(0,0)"/>
<path d="" fill="#FC752C" transform="translate(0,0)"/>
<path d="" fill="#FE782A" transform="translate(0,0)"/>
<path d="" fill="#FF7729" transform="translate(0,0)"/>
<path d="" fill="#F67632" transform="translate(0,0)"/>
<path d="" fill="#FF7629" transform="translate(0,0)"/>
<path d="" fill="#F77431" transform="translate(0,0)"/>
<path d="" fill="#F6742D" transform="translate(0,0)"/>
<path d="" fill="#FD752B" transform="translate(0,0)"/>
<path d="" fill="#F6772D" transform="translate(0,0)"/>
<path d="" fill="#FE752B" transform="translate(0,0)"/>
<path d="" fill="#FF7629" transform="translate(0,0)"/>
<path d="" fill="#FF772B" transform="translate(0,0)"/>
<path d="" fill="#FD772C" transform="translate(0,0)"/>
<path d="" fill="#FF772B" transform="translate(0,0)"/>
<path d="" fill="#FF7121" transform="translate(0,0)"/>
<path d="" fill="#FE762A" transform="translate(0,0)"/>
<path d="" fill="#FA752A" transform="translate(0,0)"/>
<path d="" fill="#FB7026" transform="translate(0,0)"/>
<path d="" fill="#FE782D" transform="translate(0,0)"/>
<path d="" fill="#FD7629" transform="translate(0,0)"/>
<path d="" fill="#FF7729" transform="translate(0,0)"/>
<path d="" fill="#FB762C" transform="translate(0,0)"/>
<path d="" fill="#F9792A" transform="translate(0,0)"/>
<path d="" fill="#FA792F" transform="translate(0,0)"/>
<path d="" fill="#FF772C" transform="translate(0,0)"/>
<path d="" fill="#FD742B" transform="translate(0,0)"/>
<path d="" fill="#FF792B" transform="translate(0,0)"/>
<path d="" fill="#FC752C" transform="translate(0,0)"/>
<path d="" fill="#FA752F" transform="translate(0,0)"/>
<path d="" fill="#F37730" transform="translate(0,0)"/>
<path d="" fill="#F37834" transform="translate(0,0)"/>
<path d="" fill="#F4732B" transform="translate(0,0)"/>
<path d="" fill="#FB7629" transform="translate(0,0)"/>
<path d="" fill="#FA762C" transform="translate(0,0)"/>
<path d="" fill="#FC762D" transform="translate(0,0)"/>
<path d="" fill="#FC732D" transform="translate(0,0)"/>
<path d="" fill="#FB762B" transform="translate(0,0)"/>
<path d="" fill="#FD762D" transform="translate(0,0)"/>
<path d="" fill="#F77830" transform="translate(0,0)"/>
<path d="" fill="#FF7528" transform="translate(0,0)"/>
<path d="" fill="#FD762B" transform="translate(0,0)"/>
<path d="" fill="#FD772D" transform="translate(0,0)"/>
<path d="" fill="#FD7629" transform="translate(0,0)"/>
<path d="" fill="#F67633" transform="translate(0,0)"/>
<path d="" fill="#F07833" transform="translate(0,0)"/>
<path d="" fill="#FE772A" transform="translate(0,0)"/>
<path d="" fill="#747373" transform="translate(0,0)"/>
<path d="" fill="#FF772C" transform="translate(0,0)"/>
<path d="" fill="#FB792E" transform="translate(0,0)"/>
<path d="" fill="#F37833" transform="translate(0,0)"/>
<path d="" fill="#FC752C" transform="translate(0,0)"/>
<path d="" fill="#FF772C" transform="translate(0,0)"/>
<path d="" fill="#FE762D" transform="translate(0,0)"/>
<path d="" fill="#FF772B" transform="translate(0,0)"/>
<path d="" fill="#F27832" transform="translate(0,0)"/>
<path d="" fill="#FC772C" transform="translate(0,0)"/>
<path d="" fill="#F37733" transform="translate(0,0)"/>
<path d="" fill="#FE772C" transform="translate(0,0)"/>
<path d="" fill="#FE7B2D" transform="translate(0,0)"/>
<path d="" fill="#F47831" transform="translate(0,0)"/>
<path d="" fill="#FE7628" transform="translate(0,0)"/>
<path d="" fill="#FF7627" transform="translate(0,0)"/>
<path d="" fill="#FF762D" transform="translate(0,0)"/>
<path d="" fill="#FE7629" transform="translate(0,0)"/>
<path d="" fill="#FF782B" transform="translate(0,0)"/>
<path d="" fill="#FE772C" transform="translate(0,0)"/>
<path d="" fill="#FF782B" transform="translate(0,0)"/>
<path d="" fill="#FF7928" transform="translate(0,0)"/>
<path d="" fill="#FA7730" transform="translate(0,0)"/>
<path d="" fill="#FD782C" transform="translate(0,0)"/>
<path d="" fill="#FE7429" transform="translate(0,0)"/>
<path d="" fill="#F97830" transform="translate(0,0)"/>
<path d="" fill="#F4762F" transform="translate(0,0)"/>
<path d="" fill="#FD772C" transform="translate(0,0)"/>
<path d="" fill="#FE7324" transform="translate(0,0)"/>
<path d="" fill="#F17630" transform="translate(0,0)"/>
<path d="" fill="#FD742B" transform="translate(0,0)"/>
<path d="" fill="#FC762B" transform="translate(0,0)"/>
<path d="" fill="#F3732C" transform="translate(0,0)"/>
<path d="" fill="#FD7325" transform="translate(0,0)"/>
<path d="" fill="#FC762D" transform="translate(0,0)"/>
<path d="" fill="#FE782D" transform="translate(0,0)"/>
<path d="" fill="#FD782C" transform="translate(0,0)"/>
<path d="" fill="#FE762F" transform="translate(0,0)"/>
<path d="" fill="#FC762C" transform="translate(0,0)"/>
<path d="" fill="#F2772F" transform="translate(0,0)"/>
<path d="" fill="#FE752A" transform="translate(0,0)"/>
<path d="" fill="#FD7325" transform="translate(0,0)"/>
<path d="" fill="#FF792C" transform="translate(0,0)"/>
<path d="" fill="#F47731" transform="translate(0,0)"/>
<path d="" fill="#FD752A" transform="translate(0,0)"/>
<path d="" fill="#FD752B" transform="translate(0,0)"/>
<path d="" fill="#F37A34" transform="translate(0,0)"/>
<path d="" fill="#F27832" transform="translate(0,0)"/>
<path d="" fill="#FF7024" transform="translate(0,0)"/>
<path d="" fill="#FF772C" transform="translate(0,0)"/>
<path d="" fill="#FF762A" transform="translate(0,0)"/>
<path d="" fill="#FF772B" transform="translate(0,0)"/>
<path d="" fill="#FE7629" transform="translate(0,0)"/>
<path d="" fill="#F6782F" transform="translate(0,0)"/>
<path d="" fill="#EF7730" transform="translate(0,0)"/>
<path d="" fill="#F37933" transform="translate(0,0)"/>
<path d="" fill="#F67B31" transform="translate(0,0)"/>
<path d="" fill="#F1732E" transform="translate(0,0)"/>
<path d="" fill="#F67528" transform="translate(0,0)"/>
<path d="" fill="#F67A32" transform="translate(0,0)"/>
<path d="" fill="#F6762F" transform="translate(0,0)"/>
<path d="" fill="#F7772D" transform="translate(0,0)"/>
<path d="" fill="#F77730" transform="translate(0,0)"/>
<path d="" fill="#F77730" transform="translate(0,0)"/>
<path d="" fill="#F57934" transform="translate(0,0)"/>
<path d="" fill="#73706E" transform="translate(0,0)"/>
<path d="" fill="#F57931" transform="translate(0,0)"/>
<path d="" fill="#F6772F" transform="translate(0,0)"/>
<path d="" fill="#F3762F" transform="translate(0,0)"/>
<path d="" fill="#F8762B" transform="translate(0,0)"/>
<path d="" fill="#F57B32" transform="translate(0,0)"/>
<path d="" fill="#F97A31" transform="translate(0,0)"/>
<path d="" fill="#F77A32" transform="translate(0,0)"/>
<path d="" fill="#F7772E" transform="translate(0,0)"/>
<path d="" fill="#F97730" transform="translate(0,0)"/>
<path d="" fill="#FA7932" transform="translate(0,0)"/>
<path d="" fill="#F7762A" transform="translate(0,0)"/>
<path d="" fill="#F77830" transform="translate(0,0)"/>
<path d="" fill="#F8772E" transform="translate(0,0)"/>
<path d="" fill="#F6772E" transform="translate(0,0)"/>
<path d="" fill="#F77A31" transform="translate(0,0)"/>
<path d="" fill="#F6782F" transform="translate(0,0)"/>
<path d="" fill="#756F68" transform="translate(0,0)"/>
<path d="" fill="#DC783F" transform="translate(0,0)"/>
<path d="" fill="#6E6F6F" transform="translate(0,0)"/>
<path d="" fill="#746C68" transform="translate(0,0)"/>
<path d="" fill="#846858" transform="translate(0,0)"/>
<path d="" fill="#6E6A68" transform="translate(0,0)"/>
<path d="" fill="#6E6B6A" transform="translate(0,0)"/>
<path d="" fill="#736962" transform="translate(0,0)"/>
<path d="" fill="#6E6D6C" transform="translate(0,0)"/>
<path d="" fill="#6D6B6C" transform="translate(0,0)"/>
<path d="" fill="#6E6B68" transform="translate(0,0)"/>
<path d="" fill="#866858" transform="translate(0,0)"/>
<path d="" fill="#866759" transform="translate(0,0)"/>
<path d="" fill="#796963" transform="translate(0,0)"/>
<path d="" fill="#786861" transform="translate(0,0)"/>
</svg>
